<svg width="17" height="17" viewBox="0 0 17 17" fill="none" xmlns="http://www.w3.org/2000/svg">
<path d="M15.8744 0.5H10.8744C10.7787 0.499991 10.6843 0.521964 10.5984 0.564225C10.5125 0.606487 10.4375 0.667907 10.3791 0.74375L5.37911 7.24453L4.62442 6.49141C4.50833 6.37519 4.37047 6.28299 4.21872 6.22008C4.06697 6.15718 3.90432 6.1248 3.74005 6.1248C3.57578 6.1248 3.41312 6.15718 3.26137 6.22008C3.10962 6.28299 2.97176 6.37519 2.85567 6.49141L1.86426 7.48359C1.74816 7.59967 1.65606 7.73748 1.59322 7.88916C1.53039 8.04083 1.49805 8.2034 1.49805 8.36758C1.49805 8.53175 1.53039 8.69432 1.59322 8.846C1.65606 8.99767 1.74816 9.13549 1.86426 9.25156L3.42676 10.8141L1.23926 13.0016C1.12316 13.1176 1.03106 13.2555 0.968225 13.4071C0.905389 13.5588 0.873047 13.7214 0.873047 13.8855C0.873047 14.0497 0.905389 14.2123 0.968225 14.364C1.03106 14.5156 1.12316 14.6535 1.23926 14.7695L2.23067 15.7602C2.46507 15.9944 2.78289 16.126 3.11426 16.126C3.44564 16.126 3.76346 15.9944 3.99786 15.7602L6.18536 13.5727L7.74786 15.1352C7.86395 15.2514 8.00181 15.3436 8.15356 15.4065C8.30531 15.4694 8.46796 15.5018 8.63223 15.5018C8.7965 15.5018 8.95916 15.4694 9.11091 15.4065C9.26266 15.3436 9.40052 15.2514 9.51661 15.1352L10.508 14.143C10.6241 14.0269 10.7162 13.8891 10.7791 13.7374C10.8419 13.5857 10.8742 13.4232 10.8742 13.259C10.8742 13.0948 10.8419 12.9322 10.7791 12.7806C10.7162 12.6289 10.6241 12.4911 10.508 12.375L9.75489 11.6219L16.2557 6.62187C16.3317 6.56333 16.3933 6.48806 16.4355 6.40189C16.4778 6.31572 16.4997 6.22098 16.4994 6.125V1.125C16.4994 0.95924 16.4336 0.800269 16.3164 0.683058C16.1992 0.565848 16.0402 0.5 15.8744 0.5ZM3.11583 14.875L2.12442 13.8844L4.31192 11.6969L5.30255 12.6875L3.11583 14.875ZM8.63223 14.25L2.74942 8.36797L3.74161 7.375L9.62442 13.2586L8.63223 14.25ZM15.2494 5.81719L8.86348 10.7297L8.0088 9.875L11.9416 5.94219C12.0588 5.82491 12.1246 5.66589 12.1245 5.50011C12.1244 5.33434 12.0585 5.17537 11.9412 5.0582C11.8239 4.94103 11.6649 4.87525 11.4991 4.87532C11.3334 4.87539 11.1744 4.94132 11.0572 5.05859L7.12442 8.99062L6.27051 8.13594L11.1822 1.75H15.2494V5.81719Z" fill="white"/>
</svg>
