<svg width="22" height="22" viewBox="0 0 22 22" fill="none" xmlns="http://www.w3.org/2000/svg">
<path d="M9.66708 1.69431C10.0862 0.358407 11.9109 0.358408 12.33 1.69431L13.8274 6.46741C14.0149 7.06485 14.5524 7.46934 15.1589 7.46934H20.0046C21.3608 7.46934 21.9247 9.26678 20.8275 10.0924L16.9073 13.0424C16.4166 13.4116 16.2113 14.0661 16.3987 14.6635L17.8961 19.4366C18.3152 20.7725 16.8389 21.8834 15.7417 21.0578L11.8215 18.1078C11.3308 17.7386 10.6663 17.7386 10.1757 18.1078L6.25542 21.0578C5.15823 21.8834 3.68195 20.7725 4.10105 19.4366L5.59844 14.6635C5.78587 14.0661 5.58055 13.4116 5.08986 13.0424L1.16963 10.0924C0.0724288 9.26678 0.636315 7.46934 1.99253 7.46934H6.83821C7.44472 7.46934 7.98226 7.06485 8.16969 6.46741L9.66708 1.69431Z" fill="url(#paint0_linear_713_222)"/>
<defs>
<linearGradient id="paint0_linear_713_222" x1="2.17167" y1="0.692379" x2="23.3595" y2="2.94023" gradientUnits="userSpaceOnUse">
<stop offset="0.0364583" stop-color="#FFF"/>
<stop offset="0.937516" stop-color="#E6CFFF"/>
</linearGradient>
</defs>
</svg>
