<svg width="18" height="18" viewBox="0 0 18 18" fill="none" xmlns="http://www.w3.org/2000/svg">
<path d="M16.475 4.16792L9.6 0.406203C9.41631 0.304705 9.20987 0.251465 9 0.251465C8.79013 0.251465 8.58369 0.304705 8.4 0.406203L1.525 4.16948C1.32866 4.27691 1.16477 4.43508 1.05043 4.62747C0.936094 4.81987 0.875508 5.03943 0.875 5.26323V12.7351C0.875508 12.9589 0.936094 13.1785 1.05043 13.3709C1.16477 13.5633 1.32866 13.7214 1.525 13.8289L8.4 17.5921C8.58369 17.6936 8.79013 17.7469 9 17.7469C9.20987 17.7469 9.41631 17.6936 9.6 17.5921L16.475 13.8289C16.6713 13.7214 16.8352 13.5633 16.9496 13.3709C17.0639 13.1785 17.1245 12.9589 17.125 12.7351V5.26401C17.1249 5.03981 17.0645 4.81976 16.9502 4.62692C16.8358 4.43407 16.6717 4.27554 16.475 4.16792ZM9 1.49995L15.2766 4.93745L12.9508 6.21089L6.67344 2.77339L9 1.49995ZM9 8.37495L2.72344 4.93745L5.37187 3.48745L11.6484 6.92495L9 8.37495ZM2.125 6.0312L8.375 9.45152V16.1539L2.125 12.7359V6.0312ZM15.875 12.7328L9.625 16.1539V9.45464L12.125 8.08667V10.875C12.125 11.0407 12.1908 11.1997 12.3081 11.3169C12.4253 11.4341 12.5842 11.5 12.75 11.5C12.9158 11.5 13.0747 11.4341 13.1919 11.3169C13.3092 11.1997 13.375 11.0407 13.375 10.875V7.4023L15.875 6.0312V12.732V12.7328Z" fill="white"/>
</svg>
