<svg width="16" height="17" viewBox="0 0 16 17" fill="none" xmlns="http://www.w3.org/2000/svg">
<path d="M15.0961 7.10717L8.84609 1.21029C8.84304 1.20763 8.84017 1.20476 8.8375 1.2017C8.60739 0.992428 8.30752 0.876465 7.99648 0.876465C7.68545 0.876465 7.38558 0.992428 7.15547 1.2017L7.14688 1.21029L0.903906 7.10717C0.776561 7.22427 0.674909 7.36653 0.605384 7.52494C0.535859 7.68336 0.499974 7.85448 0.5 8.02748V15.2501C0.5 15.5817 0.631696 15.8996 0.866116 16.134C1.10054 16.3684 1.41848 16.5001 1.75 16.5001H5.5C5.83152 16.5001 6.14946 16.3684 6.38388 16.134C6.6183 15.8996 6.75 15.5817 6.75 15.2501V11.5001H9.25V15.2501C9.25 15.5817 9.3817 15.8996 9.61612 16.134C9.85054 16.3684 10.1685 16.5001 10.5 16.5001H14.25C14.5815 16.5001 14.8995 16.3684 15.1339 16.134C15.3683 15.8996 15.5 15.5817 15.5 15.2501V8.02748C15.5 7.85448 15.4641 7.68336 15.3946 7.52494C15.3251 7.36653 15.2234 7.22427 15.0961 7.10717ZM14.25 15.2501H10.5V11.5001C10.5 11.1686 10.3683 10.8507 10.1339 10.6163C9.89946 10.3818 9.58152 10.2501 9.25 10.2501H6.75C6.41848 10.2501 6.10054 10.3818 5.86612 10.6163C5.6317 10.8507 5.5 11.1686 5.5 11.5001V15.2501H1.75V8.02748L1.75859 8.01967L8 2.12514L14.2422 8.01811L14.2508 8.02592L14.25 15.2501Z" fill="url(#paint0_linear_409_1305)"/>
<defs>
<linearGradient id="paint0_linear_409_1305" x1="1.63979" y1="0.876462" x2="16.9225" y2="2.42051" gradientUnits="userSpaceOnUse">
<stop offset="0.0364583" stop-color="#9B6CFF"/>
<stop offset="0.937516" stop-color="#DBBBFF"/>
</linearGradient>
</defs>
</svg>
